<?xml version="1.0" encoding="iso-8859-1"?>
<svg version="1.1" id="Layer_1" xmlns="http://www.w3.org/2000/svg" x="0px" y="0px"
     viewBox="0 0 512 512" style="enable-background:new 0 0 512 512;" xml:space="preserve">
<path style="fill:#FFD500;" d="M266.199,256c0,93.069-51.729,174.05-128,215.777c34.979,19.138,75.117,30.023,117.801,30.023
	c135.752,0,245.801-110.048,245.801-245.801S391.752,10.199,256,10.199c-42.684,0-82.822,10.886-117.801,30.023
	C214.47,81.95,266.199,162.931,266.199,256z"/>
    <path style="fill:#36C8EB;" d="M10.199,256c0,93.069,51.729,174.05,128,215.777c76.271-41.727,128-122.709,128-215.777
	s-51.729-174.05-128-215.777C61.929,81.95,10.199,162.931,10.199,256z"/>
    <g>
	<path style="fill:#3D3D3D;" d="M437.02,74.981C388.667,26.628,324.38,0,256,0c-42.868,0-85.295,10.814-122.692,31.273
		c-0.001,0.001-0.003,0.001-0.004,0.002C51.08,76.26,0,162.369,0,256s51.08,179.74,133.304,224.725
		c0.001,0.001,0.003,0.001,0.004,0.002C170.705,501.186,213.132,512,256,512c68.38,0,132.667-26.628,181.02-74.981
		C485.372,388.667,512,324.381,512,256S485.372,123.333,437.02,74.981z M20.398,256c0-84.299,44.991-161.977,117.801-204.077
		C211.009,94.024,256,171.701,256,256s-44.991,161.977-117.801,204.077C65.389,417.977,20.398,340.299,20.398,256z M256,491.602
		c-33.325,0-66.352-7.097-96.541-20.642C232.038,423.963,276.398,343.25,276.398,256S232.038,88.037,159.459,41.041
		C189.647,27.495,222.675,20.398,256,20.398c129.911,0,235.602,105.69,235.602,235.602S385.911,491.602,256,491.602z"/>
        <path style="fill:#3D3D3D;" d="M59.553,268.614c-0.264-4.167-0.398-8.411-0.398-12.614c0-5.632-4.566-10.199-10.199-10.199
		S38.757,250.368,38.757,256c0,4.63,0.148,9.309,0.439,13.904c0.342,5.402,4.83,9.555,10.169,9.555c0.216,0,0.434-0.007,0.654-0.02
		C55.64,279.082,59.908,274.236,59.553,268.614z"/>
        <path style="fill:#3D3D3D;" d="M148.165,433.074c3.167-4.658,1.958-11.002-2.7-14.17c-32.255-21.931-57.073-52.536-71.768-88.507
		c-2.131-5.215-8.084-7.714-13.3-5.584c-5.214,2.131-7.715,8.085-5.584,13.299c16.218,39.696,43.6,73.466,79.183,97.66
		c1.756,1.194,3.751,1.765,5.725,1.765C142.986,437.54,146.192,435.976,148.165,433.074z"/>
</g>
</svg>
